<?xml version="1.0" encoding="UTF-8" standalone="no"?>
<!-- Created with Inkscape (http://www.inkscape.org/) -->

<svg
   xmlns:dc="http://purl.org/dc/elements/1.1/"
   xmlns:cc="http://creativecommons.org/ns#"
   xmlns:rdf="http://www.w3.org/1999/02/22-rdf-syntax-ns#"
   xmlns:svg="http://www.w3.org/2000/svg"
   xmlns="http://www.w3.org/2000/svg"
   xmlns:sodipodi="http://sodipodi.sourceforge.net/DTD/sodipodi-0.dtd"
   xmlns:inkscape="http://www.inkscape.org/namespaces/inkscape"
   width="2165.4688"
   height="178.84375"
   id="svg2"
   version="1.1"
   inkscape:version="0.48.5 r10040"
   sodipodi:docname="tagexample.svg">
  <defs
     id="defs4" />
  <sodipodi:namedview
     id="base"
     pagecolor="#ffffff"
     bordercolor="#666666"
     borderopacity="1.0"
     inkscape:pageopacity="0.0"
     inkscape:pageshadow="2"
     inkscape:zoom="0.35"
     inkscape:cx="790.56757"
     inkscape:cy="-84.836211"
     inkscape:document-units="px"
     inkscape:current-layer="layer1"
     showgrid="false"
     inkscape:window-width="1920"
     inkscape:window-height="1080"
     inkscape:window-x="0"
     inkscape:window-y="0"
     inkscape:window-maximized="0"
     fit-margin-top="0"
     fit-margin-left="0"
     fit-margin-right="0"
     fit-margin-bottom="0" />
  <metadata
     id="metadata7">
    <rdf:RDF>
      <cc:Work
         rdf:about="">
        <dc:format>image/svg+xml</dc:format>
        <dc:type
           rdf:resource="http://purl.org/dc/dcmitype/StillImage" />
        <dc:title />
      </cc:Work>
    </rdf:RDF>
  </metadata>
  <g
     inkscape:label="Calque 1"
     inkscape:groupmode="layer"
     id="layer1"
     transform="translate(-154.71875,-265.34375)">
    <path
       style="fill:#000000;fill-opacity:1;stroke:#000000;stroke-width:6;stroke-linecap:round;stroke-linejoin:miter;stroke-miterlimit:4;stroke-opacity:1;stroke-dasharray:none;stroke-dashoffset:0"
       d="m 219.8408,426.28419 c 0,8.25446 6.65179,14.90625 14.90625,14.90625 l 39.71875,0 c 8.25446,0 14.90625,-6.65179 14.90625,-14.90625 l 0,-6.125 -25.59375,0 c -1.03181,0 -2.02832,-0.0834 -3,-0.28125 -0.97168,-0.19783 -1.92061,-0.49901 -2.8125,-0.875 -0.89189,-0.37599 -1.73883,-0.84053 -2.53125,-1.375 -0.79242,-0.53447 -1.51422,-1.13922 -2.1875,-1.8125 -0.67328,-0.67328 -1.27803,-1.39508 -1.8125,-2.1875 -0.53447,-0.79242 -0.99901,-1.63936 -1.375,-2.53125 -0.37599,-0.89189 -0.67717,-1.84082 -0.875,-2.8125 -0.19783,-0.97168 -0.28125,-1.96819 -0.28125,-3 l 0,-101.03125 c 0,-1.03181 0.0834,-2.02832 0.28125,-3 0.19783,-0.97168 0.49901,-1.92061 0.875,-2.8125 0.37599,-0.89189 0.84053,-1.73883 1.375,-2.53125 0.53447,-0.79242 1.13922,-1.51422 1.8125,-2.1875 0.67328,-0.67328 1.39508,-1.27803 2.1875,-1.8125 0.79242,-0.53447 1.63936,-0.99901 2.53125,-1.375 0.89189,-0.37599 1.84082,-0.67717 2.8125,-0.875 0.97168,-0.19783 1.96819,-0.3125 3,-0.3125 l 25.59375,0 0,-6.09375 c 0,-8.25446 -6.65179,-14.90625 -14.90625,-14.90625 l -39.71875,0 c -8.25446,0 -14.90625,6.65179 -14.90625,14.90625 l 0,143.03125 z m 7.65625,-1.03125 c -0.0112,-2.79423 1.3302,-5.52617 3.8125,-7.21875 3.97428,-2.70715 9.3866,-1.69303 12.09375,2.28125 2.70715,3.97428 1.66178,9.3866 -2.3125,12.09375 -3.97428,2.70715 -9.3866,1.69303 -12.09375,-2.28125 -1.01484,-1.48986 -1.49329,-3.19846 -1.5,-4.875 z"
       id="rect2985"
       inkscape:connector-curvature="0" />
    <rect
       style="fill:none;stroke:#000000;stroke-width:6;stroke-linecap:round;stroke-linejoin:miter;stroke-miterlimit:4;stroke-opacity:1;stroke-dasharray:none;stroke-dashoffset:0"
       id="rect3755"
       width="130.81476"
       height="2068.2874"
       x="-420.17279"
       y="248.8911"
       ry="14.89975"
       transform="matrix(0,-1,1,0,0,0)" />
    <path
       style="fill:none;stroke:#000000;stroke-width:6;stroke-linecap:round;stroke-linejoin:miter;stroke-miterlimit:4;stroke-opacity:1;stroke-dasharray:none;stroke-dashoffset:0"
       d="m 212.2783,278.56641 -44.2307,0 c -5.73615,0 -10.34375,4.6076 -10.34375,10.34375 l 0,131.71682 c 0,5.73615 4.6076,10.34375 10.34375,10.34375 l 44.2307,0"
       id="rect3757"
       inkscape:connector-curvature="0"
       sodipodi:nodetypes="cssssc" />
    <text
       xml:space="preserve"
       style="font-size:49.87266159px;font-style:normal;font-variant:normal;font-weight:normal;font-stretch:normal;line-height:125%;letter-spacing:0px;word-spacing:0px;fill:#000000;fill-opacity:1;stroke:none;font-family:Anonymous Pro;-inkscape-font-specification:Anonymous Pro"
       x="-426.27936"
       y="202.29689"
       id="text3774"
       sodipodi:linespacing="125%"
       transform="matrix(0,-1,1,0,0,0)"><tspan
         sodipodi:role="line"
         id="tspan3776"
         x="-426.27936"
         y="202.29689"
         style="font-style:oblique;font-variant:normal;font-weight:bold;font-stretch:normal;font-family:CMU Sans Serif;-inkscape-font-specification:CMU Sans Serif Bold Oblique">PSSN</tspan></text>
    <text
       xml:space="preserve"
       style="font-size:129.19464111px;font-style:normal;font-variant:normal;font-weight:normal;font-stretch:normal;line-height:125%;letter-spacing:0px;word-spacing:0px;fill:#000000;fill-opacity:1;stroke:none;font-family:Anonymous Pro;-inkscape-font-specification:Anonymous Pro"
       x="259.33176"
       y="394.62195"
       id="text2999"
       sodipodi:linespacing="125%"><tspan
         sodipodi:role="line"
         id="tspan3001"
         x="259.33176"
         y="394.62195"
         style="font-style:normal;font-variant:normal;font-weight:bold;font-stretch:normal;font-family:CMU Sans Serif;-inkscape-font-specification:CMU Sans Serif Bold">+net +rv +f:A4 ±color -scan -fax</tspan></text>
  </g>
</svg>
